<svg width="33" height="31" viewBox="0 0 33 31" fill="none" xmlns="http://www.w3.org/2000/svg">
<g clip-path="url(#clip0_1_320)">
<path d="M0 3.92188C0 2.26502 1.34315 0.921875 3 0.921875H30C31.6569 0.921875 33 2.26502 33 3.92188V30.9219H0V3.92188Z" fill="#BA9FB7"/>
<path d="M32.6703 21.4833L17.2602 7.47502C17.04 7.27466 16.7867 7.17432 16.5002 7.17432C16.2136 7.17432 15.9599 7.27466 15.7396 7.47502L0.330777 21.4833C0.110027 21.6839 0 21.9142 0 22.1748C0 22.4353 0.110375 22.6659 0.330777 22.8661L1.98374 24.3687C2.20414 24.5691 2.45778 24.6692 2.74432 24.6692C3.03085 24.6692 3.28449 24.5691 3.50489 24.3687L16.5002 12.555L29.4959 24.3694C29.7162 24.5698 29.97 24.6693 30.256 24.6693C30.543 24.6693 30.7967 24.5692 31.017 24.3694L32.6702 22.8662C32.8904 22.666 32.9999 22.4353 32.9999 22.1749C33 21.9142 32.8906 21.6836 32.6703 21.4833Z" fill="white"/>
</g>
<defs>
<clipPath id="clip0_1_320">
<path d="M0 3.92188C0 2.26502 1.34315 0.921875 3 0.921875H30C31.6569 0.921875 33 2.26502 33 3.92188V30.9219H0V3.92188Z" fill="white"/>
</clipPath>
</defs>
</svg>
